<?xml version="1.0" standalone="no"?>
<!DOCTYPE svg PUBLIC "-//W3C//DTD SVG 20010904//EN"
 "http://www.w3.org/TR/2001/REC-SVG-20010904/DTD/svg10.dtd">
<svg version="1.0" xmlns="http://www.w3.org/2000/svg"
 width="512.000000pt" height="512.000000pt" viewBox="0 0 512.000000 512.000000"
 preserveAspectRatio="xMidYMid meet">
<metadata>
Created by potrace 1.14, written by Peter Selinger 2001-2017
</metadata>
<g transform="translate(0.000000,512.000000) scale(0.100000,-0.100000)"
fill="#000000" stroke="none">
<path d="M2355 5113 c-27 -2 -108 -12 -180 -24 -568 -90 -1037 -330 -1438
-735 -136 -139 -201 -217 -302 -369 -214 -321 -342 -649 -407 -1047 -31 -192
-31 -552 0 -753 123 -791 582 -1459 1277 -1858 200 -114 499 -226 730 -271
235 -46 283 -50 525 -50 140 0 268 5 315 12 632 100 1092 328 1508 748 64 66
142 151 172 189 66 83 175 240 175 252 0 4 -46 26 -103 47 -610 232 -1166 680
-1530 1233 -280 426 -444 869 -514 1392 -24 178 -24 617 1 793 15 115 64 369
82 426 l6 22 -133 -2 c-74 -1 -156 -3 -184 -5z m-656 -1464 c26 -9 33 -19 46
-62 8 -29 123 -457 255 -952 133 -494 242 -900 243 -902 2 -1 136 33 298 77
161 44 302 80 311 80 9 0 30 -11 46 -24 107 -91 225 -548 173 -673 -16 -40 34
-24 -692 -217 -300 -81 -565 -146 -588 -146 -23 0 -54 6 -69 14 -41 22 -89 76
-110 126 -11 25 -165 588 -343 1252 -321 1200 -322 1208 -303 1229 39 44 182
101 399 158 170 46 280 59 334 40z"/>
</g>
</svg>
